{
    "asset": {
        "version": "2.0",
        "generator": "Open Asset Import Library (assimp v5.2.cf7d3637)"
    },
    "extensionsUsed": [
        "KHR_materials_volume",
        "FB_ngon_encoding"
    ],
    "accessors": [
        {
            "bufferView": 0,
            "byteOffset": 0,
            "componentType": 5126,
            "count": 84,
            "type": "VEC3",
            "max": [
                0.1561741977930069,
                0.22988590598106385,
                0.05675891041755676
            ],
            "min": [
                -0.15617430210113526,
                -0.22988590598106385,
                -0.05675889924168587
            ]
        },
        {
            "bufferView": 1,
            "byteOffset": 0,
            "componentType": 5126,
            "count": 84,
            "type": "VEC3",
            "max": [
                0.7756479978561401,
                0.7757243514060974,
                0.9944960474967957
            ],
            "min": [
                -0.7756479382514954,
                -0.7757243514060974,
                -0.9944960474967957
            ]
        },
        {
            "bufferView": 2,
            "byteOffset": 0,
            "componentType": 5126,
            "count": 84,
            "type": "VEC2",
            "max": [
                0.22658559679985047,
                1.1914652585983277
            ],
            "min": [
                -0.22658559679985047,
                0.9155314564704895
            ]
        },
        {
            "bufferView": 3,
            "byteOffset": 0,
            "componentType": 5125,
            "count": 84,
            "type": "SCALAR",
            "max": [
                83
            ],
            "min": [
                0
            ]
        }
    ],
    "buffers": [
        {
            "byteLength": 3024,
            "uri": "result.bin"
        }
    ],
    "bufferViews": [
        {
            "buffer": 0,
            "byteOffset": 0,
            "byteLength": 1008,
            "target": 34962
        },
        {
            "buffer": 0,
            "byteOffset": 1008,
            "byteLength": 1008,
            "target": 34962
        },
        {
            "buffer": 0,
            "byteOffset": 2016,
            "byteLength": 672,
            "target": 34962
        },
        {
            "buffer": 0,
            "byteOffset": 2688,
            "byteLength": 336,
            "target": 34963
        }
    ],
    "materials": [
        {
            "name": "mat2",
            "pbrMetallicRoughness": {
                "baseColorFactor": [
                    0.12999999523162843,
                    0.03999999910593033,
                    0.49000000953674319,
                    1.0
                ],
                "metallicFactor": 0.0
            }
        },
        {
            "name": "material"
        }
    ],
    "meshes": [
        {
            "name": "mesh302355881",
            "primitives": [
                {
                    "mode": 4,
                    "material": 0,
                    "indices": 3,
                    "attributes": {
                        "POSITION": 0,
                        "NORMAL": 1,
                        "TEXCOORD_0": 2
                    }
                }
            ]
        }
    ],
    "nodes": [
        {
            "name": "group302355881",
            "mesh": 0
        }
    ],
    "scenes": [
        {
            "nodes": [
                0
            ]
        }
    ],
    "scene": 0
}